# Blender v2.93.1 OBJ File: 'map_origin_and_hierarchical.blend'
# www.blender.org
o ground_wild_Plane.005
v 14.642210 -0.891629 -4.446884
v 19.451996 -0.891629 -0.693493
v 19.451996 -0.891629 9.553124
v 23.831863 -0.891629 -0.419297
v 23.831863 -0.891629 9.827320
v 28.518852 -0.891629 3.113491
v 28.518852 -0.891629 13.360107
v 14.642210 2.293800 -8.093879
v 9.153408 0.615459 -8.093879
v 19.451996 2.293800 -4.340487
v 23.831863 2.293800 -4.066292
v 31.844505 2.293800 -1.307087
v 14.642210 -6.435848 5.799733
v 19.451996 -6.435848 9.553124
v 23.831863 -6.435848 9.827320
v 28.518852 -6.435848 13.360107
v 31.857256 2.362751 -1.384010
v 31.857256 2.362751 13.360107
v 9.375788 -1.523239 -3.279566
v 9.796377 -0.891629 -4.446884
v 9.153408 -0.415854 -4.862298
v 14.642210 -0.891629 5.168122
v 14.642210 -1.523239 5.799733
v 15.140147 -0.891629 6.188306
v 10.987244 -1.523239 5.179281
v 11.737053 -1.523239 5.799733
v 11.628087 -0.891629 5.168122
v 11.737053 -6.435848 5.799733
v 10.987244 -6.100135 5.179281
vt 0.146000 0.217000
vt 0.009000 0.220000
vt 0.146000 0.029000
vt 0.308000 0.217000
vt 0.308000 0.014000
vt 0.558000 0.014000
vt 0.406000 0.264000
vt 0.540000 0.608000
vt 0.397000 0.594000
vt 0.615000 0.318000
vt 0.771000 0.580000
vt 0.222000 0.663000
vt 0.380000 0.945000
vt 0.199000 0.992000
vt 0.122000 0.352000
vt 0.220000 0.356000
vt 0.519000 0.953000
vt 0.698000 0.893000
vt 0.558000 0.244000
vt 0.740000 0.014000
vt 0.740000 0.244000
vt 0.983000 0.014000
vt 0.983000 0.244000
vt 0.186000 0.217000
vt 0.980000 0.255000
vt 0.974000 0.580000
vt 0.246000 0.333000
vt 0.046000 0.596000
vt 0.056000 0.640000
vt 0.031000 0.657000
vt 0.217000 0.330000
vt 0.096000 0.343000
vt 0.124000 0.328000
vt 0.019000 0.967000
vt 0.333000 0.244000
vt 0.805000 0.255000
vt 0.186000 0.014000
vn -0.9823 0.0000 0.1871
vn -0.6152 0.0000 0.7884
vn 0.0000 1.0000 0.0000
vn -0.4567 0.6700 0.5852
vn -0.0411 0.7525 0.6573
vn -0.2209 0.7345 0.6416
vn -0.0625 0.0000 0.9980
vn -0.6019 0.0000 0.7986
vn 0.0000 0.0000 1.0000
vn -0.6980 0.7161 0.0000
vn 0.2560 0.8086 0.5298
vn -0.8230 0.4017 0.4017
vn -0.5320 0.5511 0.6429
vn -0.6946 0.7071 0.1323
vn 0.0000 0.7071 0.7071
vn -0.6375 0.0000 0.7704
vn -0.2670 0.8731 0.4079
vn -0.3004 0.8666 0.3985
vn 0.4533 0.8492 0.2710
vn 0.0000 0.7532 0.6578
s off
f 25/1/1 19/2/1 29/3/1
f 23/4/2 13/5/2 14/6/2
f 3/7/3 4/8/3 2/9/3
f 5/10/3 6/11/3 4/8/3
f 1/12/4 10/13/4 8/14/4
f 1/12/3 27/15/3 22/16/3
f 2/9/5 11/17/5 10/13/5
f 4/8/6 12/18/6 11/17/6
f 3/19/7 15/20/7 5/21/7
f 5/21/8 16/22/8 7/23/8
f 26/24/9 13/5/9 23/4/9
f 6/11/10 18/25/10 17/26/10
f 24/27/3 3/7/3 2/9/3
f 19/28/11 20/29/11 21/30/11
f 22/16/12 23/31/12 24/27/12
f 25/32/13 26/33/13 27/15/13
f 19/28/14 27/15/14 20/29/14
f 26/33/15 22/16/15 27/15/15
f 29/3/16 26/24/16 25/1/16
f 20/29/17 8/14/17 9/34/17
f 14/6/2 3/19/2 24/35/2
f 24/35/2 23/4/2 14/6/2
f 3/7/3 5/10/3 4/8/3
f 5/10/3 7/36/3 6/11/3
f 1/12/4 2/9/4 10/13/4
f 1/12/3 20/29/3 27/15/3
f 2/9/5 4/8/5 11/17/5
f 4/8/18 6/11/18 12/18/18
f 3/19/7 14/6/7 15/20/7
f 5/21/8 15/20/8 16/22/8
f 26/24/9 28/37/9 13/5/9
f 6/11/10 7/36/10 18/25/10
f 2/9/3 1/12/3 22/16/3
f 22/16/3 24/27/3 2/9/3
f 19/28/14 25/32/14 27/15/14
f 26/33/15 23/31/15 22/16/15
f 29/3/16 28/37/16 26/24/16
f 9/34/19 21/30/19 20/29/19
f 20/29/20 1/12/20 8/14/20
