# Blender v2.93.1 OBJ File: 'castle2_uv.blend'
# www.blender.org
o hightower_stairs#0;0;0,863;4_Cylinder.025
v -10.711634 1.179154 -6.742680
v -10.583071 1.095784 -7.063012
v -10.394485 1.012447 -7.352108
v -10.153124 0.929141 -7.598859
v -9.868259 0.845862 -7.793780
v -9.551400 0.710360 -7.931153
v -9.213874 0.569052 -8.007799
v -8.866483 0.427774 -8.020708
v -8.523787 0.286521 -7.957386
v -8.201467 0.159424 -7.825279
v -7.917047 0.095992 -7.626230
v -7.676299 3.157385 -7.384985
v -7.479405 3.014743 -7.099087
v -7.341362 2.866231 -6.780616
v -7.269089 2.785795 -6.442284
v -7.263511 2.687827 -6.096626
v -7.327941 2.585948 -5.756880
v -7.457824 2.484772 -5.436605
v -7.647200 2.386231 -5.147740
v -7.888959 2.290922 -4.901214
v -8.173991 2.198705 -4.706448
v -8.491467 2.109075 -4.570935
v -8.829255 2.021415 -4.499907
v -9.174402 1.935161 -4.496117
v -9.513657 1.849864 -4.559722
v -9.833985 1.765205 -4.688286
v -10.123079 1.680964 -4.876870
v -10.369827 1.597002 -5.118229
v -10.564748 1.513230 -5.403090
v -10.700350 1.429591 -5.720505
v -10.771420 1.346045 -6.058275
v -10.775230 1.262573 -6.403421
v -9.456748 1.184473 -6.377085
v -9.423621 1.101439 -6.459625
v -9.375028 1.018407 -6.534117
v -9.312835 0.935372 -6.597697
v -9.239433 0.852339 -6.647922
v -9.157644 0.769307 -6.682863
v -9.070610 0.686275 -6.701175
v -8.981675 0.603242 -6.702157
v -8.894258 0.466795 -6.685769
v -8.811718 0.325838 -6.652641
v -8.737226 0.176599 -6.604048
v -8.675389 3.152657 -6.543159
v -8.624701 3.015346 -6.469411
v -8.589298 2.878035 -6.387276
v -8.570539 2.744715 -6.299909
v -8.569186 2.606153 -6.210695
v -8.585574 2.513002 -6.123278
v -8.618701 2.429970 -6.040738
v -8.667295 2.346936 -5.966246
v -8.729487 2.263904 -5.902666
v -8.802889 2.180870 -5.852441
v -8.884678 2.097836 -5.817500
v -8.971713 2.014803 -5.799188
v -9.060647 1.931771 -5.798206
v -9.148065 1.848739 -5.814594
v -9.230605 1.765705 -5.847722
v -9.305097 1.682671 -5.896315
v -9.368677 1.599638 -5.958508
v -9.418902 1.516606 -6.031909
v -9.453842 1.433572 -6.113698
v -9.472155 1.350538 -6.200733
v -9.473136 1.267506 -6.289668
v -7.672496 0.031942 -7.382131
v -8.673646 0.029507 -6.541855
v -7.676299 3.157385 -7.384985
v -8.675389 3.152657 -6.543159
v -10.711634 0.689747 -6.742680
v -10.583071 0.606378 -7.063012
v -10.394485 0.523040 -7.352108
v -10.153124 0.439734 -7.598859
v -9.868259 0.356455 -7.793780
v -9.551400 0.220953 -7.931153
v -9.213874 0.079644 -8.007799
v -8.866483 -0.061632 -8.020708
v -8.523787 -0.202886 -7.957386
v -8.201467 -0.329983 -7.825279
v -7.917047 -0.393415 -7.626230
v -7.672496 -0.457464 -7.382131
v -7.479405 2.525337 -7.099087
v -7.341362 2.376824 -6.780616
v -7.269089 2.296388 -6.442284
v -7.263511 2.198420 -6.096626
v -7.327941 2.096540 -5.756880
v -7.457824 1.995365 -5.436605
v -7.647200 1.896824 -5.147740
v -7.888959 1.801515 -4.901214
v -8.173991 1.709297 -4.706448
v -8.491467 1.619667 -4.570935
v -8.829255 1.532007 -4.499907
v -9.174402 1.445754 -4.496117
v -9.513657 1.360456 -4.559722
v -9.833985 1.275798 -4.688286
v -10.123079 1.191556 -4.876870
v -10.369827 1.107595 -5.118229
v -10.564748 1.023824 -5.403090
v -10.700350 0.940184 -5.720505
v -10.771420 0.856638 -6.058275
v -10.775230 0.773166 -6.403421
v -7.676299 2.667977 -7.384985
v -9.456748 0.695065 -6.377085
v -9.423621 0.612032 -6.459625
v -9.375028 0.528999 -6.534117
v -9.312835 0.445965 -6.597697
v -9.239433 0.362932 -6.647922
v -9.157644 0.279901 -6.682863
v -9.070610 0.196867 -6.701175
v -8.981675 0.113834 -6.702157
v -8.894258 -0.022612 -6.685769
v -8.811718 -0.163569 -6.652641
v -8.737226 -0.312809 -6.604048
v -8.673646 -0.459902 -6.541855
v -8.624701 2.525939 -6.469411
v -8.589298 2.388627 -6.387276
v -8.570539 2.255307 -6.299909
v -8.569186 2.116744 -6.210695
v -8.585574 2.023595 -6.123278
v -8.618701 1.940562 -6.040738
v -8.667295 1.857530 -5.966246
v -8.729487 1.774496 -5.902666
v -8.802889 1.691463 -5.852441
v -8.884678 1.608429 -5.817500
v -8.971713 1.525395 -5.799188
v -9.060647 1.442364 -5.798206
v -9.148065 1.359331 -5.814594
v -9.230605 1.276299 -5.847722
v -9.305097 1.193264 -5.896315
v -9.368677 1.110230 -5.958508
v -9.418902 1.027199 -6.031909
v -9.453842 0.944164 -6.113698
v -9.472155 0.861132 -6.200733
v -9.473136 0.778098 -6.289668
v -8.675389 2.663249 -6.543159
v -7.676299 2.667977 -7.384985
v -8.675389 2.663249 -6.543159
vt 0.592000 0.719000
vt 0.496000 0.684000
vt 0.505000 0.666000
vt 0.625000 0.676000
vt 0.563000 0.604000
vt 0.583000 0.594000
vt 0.583000 0.738000
vt 0.484000 0.721000
vt 0.489000 0.702000
vt 0.610000 0.692000
vt 0.529000 0.632000
vt 0.545000 0.617000
vt 0.577000 0.758000
vt 0.479000 0.758000
vt 0.480000 0.739000
vt 0.597000 0.709000
vt 0.516000 0.649000
vt 0.478000 0.776000
vt 0.574000 0.788000
vt 0.479000 0.794000
vt 0.507000 0.877000
vt 0.590000 0.843000
vt 0.517000 0.891000
vt 0.587000 0.728000
vt 0.482000 0.812000
vt 0.576000 0.808000
vt 0.486000 0.829000
vt 0.528000 0.905000
vt 0.600000 0.857000
vt 0.540000 0.917000
vt 0.579000 0.748000
vt 0.492000 0.846000
vt 0.582000 0.826000
vt 0.499000 0.862000
vt 0.553000 0.927000
vt 0.612000 0.870000
vt 0.568000 0.937000
vt 0.574000 0.778000
vt 0.585000 0.835000
vt 0.584000 0.946000
vt 0.624000 0.879000
vt 0.602000 0.953000
vt 0.575000 0.798000
vt 0.595000 0.850000
vt 0.620000 0.958000
vt 0.642000 0.886000
vt 0.639000 0.959000
vt 0.579000 0.817000
vt 0.606000 0.864000
vt 0.656000 0.955000
vt 0.661000 0.891000
vt 0.670000 0.949000
vt 0.618000 0.875000
vt 0.645000 0.596000
vt 0.640000 0.655000
vt 0.626000 0.588000
vt 0.633000 0.883000
vt 0.633000 0.665000
vt 0.605000 0.588000
vt 0.652000 0.889000
vt 0.617000 0.684000
vt 0.651000 0.641000
vt 0.659000 0.611000
vt 0.604000 0.701000
vt 0.652000 0.641000
vt 0.786000 0.890000
vt 0.814000 0.846000
vt 0.800000 0.896000
vt 0.855000 0.893000
vt 0.838000 0.843000
vt 0.867000 0.886000
vt 0.765000 0.874000
vt 0.805000 0.841000
vt 0.774000 0.882000
vt 0.827000 0.899000
vt 0.829000 0.847000
vt 0.842000 0.897000
vt 0.750000 0.849000
vt 0.800000 0.835000
vt 0.756000 0.862000
vt 0.819000 0.847000
vt 0.813000 0.899000
vt 0.745000 0.836000
vt 0.796000 0.821000
vt 0.796000 0.826000
vt 0.771000 0.760000
vt 0.808000 0.797000
vt 0.804000 0.800000
vt 0.809000 0.844000
vt 0.745000 0.808000
vt 0.797000 0.811000
vt 0.796000 0.816000
vt 0.796000 0.746000
vt 0.817000 0.794000
vt 0.812000 0.795000
vt 0.803000 0.839000
vt 0.754000 0.782000
vt 0.802000 0.803000
vt 0.799000 0.807000
vt 0.823000 0.741000
vt 0.827000 0.794000
vt 0.822000 0.793000
vt 0.798000 0.830000
vt 0.762000 0.770000
vt 0.852000 0.747000
vt 0.836000 0.797000
vt 0.832000 0.795000
vt 0.744000 0.822000
vt 0.783000 0.752000
vt 0.878000 0.762000
vt 0.846000 0.803000
vt 0.842000 0.800000
vt 0.748000 0.795000
vt 0.809000 0.742000
vt 0.896000 0.783000
vt 0.854000 0.815000
vt 0.851000 0.809000
vt 0.838000 0.743000
vt 0.896000 0.854000
vt 0.847000 0.836000
vt 0.851000 0.830000
vt 0.865000 0.753000
vt 0.842000 0.839000
vt 0.879000 0.877000
vt 0.888000 0.771000
vt 0.833000 0.845000
vt 0.853000 0.824000
vt 0.902000 0.841000
vt 0.824000 0.847000
vt 0.888000 0.867000
vt 0.695000 0.597000
vt 0.657000 0.669000
vt 0.692000 0.599000
vt 0.607000 0.755000
vt 0.605000 0.763000
vt 0.480000 0.879000
vt 0.603000 0.771000
vt 0.601000 0.779000
vt 0.501000 0.911000
vt 0.575000 0.768000
vt 0.601000 0.786000
vt 0.601000 0.794000
vt 0.529000 0.940000
vt 0.602000 0.802000
vt 0.603000 0.809000
vt 0.563000 0.963000
vt 0.659000 0.611000
vt 0.605000 0.817000
vt 0.607000 0.824000
vt 0.604000 0.981000
vt 0.657000 0.672000
vt 0.610000 0.830000
vt 0.613000 0.837000
vt 0.652000 0.986000
vt 0.617000 0.843000
vt 0.621000 0.848000
vt 0.626000 0.853000
vt 0.621000 0.548000
vt 0.630000 0.858000
vt 0.635000 0.863000
vt 0.560000 0.567000
vt 0.640000 0.867000
vt 0.646000 0.871000
vt 0.517000 0.600000
vt 0.651000 0.875000
vt 0.659000 0.878000
vt 0.487000 0.639000
vt 0.490000 0.895000
vt 0.667000 0.881000
vt 0.676000 0.883000
vt 0.467000 0.680000
vt 0.514000 0.926000
vt 0.647000 0.647000
vt 0.649000 0.685000
vt 0.456000 0.722000
vt 0.546000 0.951000
vt 0.642000 0.696000
vt 0.635000 0.707000
vt 0.452000 0.763000
vt 0.583000 0.973000
vt 0.629000 0.718000
vt 0.624000 0.725000
vt 0.455000 0.804000
vt 0.627000 0.986000
vt 0.619000 0.732000
vt 0.614000 0.740000
vt 0.464000 0.842000
vt 0.675000 0.978000
vt 0.611000 0.747000
vt 0.661000 0.558000
vt 0.588000 0.555000
vt 0.537000 0.583000
vt 0.501000 0.619000
vt 0.476000 0.659000
vt 0.685000 0.886000
vt 0.461000 0.701000
vt 0.453000 0.743000
vt 0.695000 0.958000
vt 0.453000 0.784000
vt 0.459000 0.823000
vt 0.471000 0.861000
vt 0.902000 0.795000
vn -0.2266 0.9678 0.1093
vn -0.0837 0.9588 0.2716
vn -0.2422 0.9700 0.0216
vn -0.1611 0.9616 0.2224
vn -0.2294 0.9710 -0.0677
vn -0.2100 0.9661 0.1502
vn -0.1540 0.9714 -0.1805
vn 0.1050 0.9719 -0.2108
vn -0.2376 0.9691 0.0662
vn -0.0739 0.9717 -0.2245
vn 0.1772 0.9719 -0.1548
vn -0.2396 0.9706 -0.0235
vn 0.0169 0.9718 -0.2352
vn 0.3334 0.9309 -0.1491
vn -0.1865 0.9712 -0.1480
vn 0.0621 0.9718 -0.2273
vn 0.3723 0.9237 -0.0904
vn -0.1161 0.9716 -0.2063
vn 0.1438 0.9719 -0.1863
vn 0.3490 0.9358 0.0488
vn -0.0290 0.9717 -0.2342
vn 0.2038 0.9719 -0.1174
vn 0.1163 0.9831 0.1414
vn 0.3595 0.9251 -0.1224
vn 0.1265 0.9189 0.3737
vn 0.3840 0.9231 -0.0190
vn -0.0005 0.9621 0.2727
vn 0.1751 0.9825 0.0630
vn -0.1287 0.9594 0.2509
vn 0.2432 0.9244 0.2938
vn -0.1881 0.9639 0.1882
vn 0.0770 0.9736 0.2150
vn 0.0000 0.0000 1.0000
vn 0.2266 -0.9678 -0.1093
vn 0.0837 -0.9588 -0.2716
vn 0.2422 -0.9700 -0.0216
vn 0.1611 -0.9616 -0.2224
vn 0.2294 -0.9710 0.0677
vn 0.2100 -0.9661 -0.1502
vn 0.5343 -0.7293 0.4275
vn -0.1886 -0.7292 0.6578
vn 0.2376 -0.9691 -0.0662
vn 0.3309 -0.7292 0.5990
vn -0.4257 -0.7291 0.5359
vn 0.2396 -0.9706 0.0235
vn 0.0771 -0.7292 0.6800
vn -0.5982 -0.7291 0.3324
vn 0.6071 -0.7293 0.3156
vn -0.0568 -0.7292 0.6820
vn -0.6750 -0.7246 0.1390
vn 0.4410 -0.7293 0.5232
vn -0.3131 -0.7292 0.6085
vn -0.8330 -0.5272 -0.1679
vn 0.2080 -0.7292 0.6519
vn -0.5220 -0.7291 0.4426
vn -0.6884 -0.5140 -0.5118
vn -0.6439 -0.7273 0.2375
vn -0.4045 -0.5440 -0.7351
vn -0.8419 -0.5396 -0.0017
vn 0.0005 -0.9621 -0.2727
vn -0.7923 -0.5063 -0.3405
vn 0.1287 -0.9594 -0.2509
vn -0.2431 -0.9244 -0.2938
vn 0.1881 -0.9639 -0.1882
vn -0.0770 -0.9736 -0.2150
vn -0.3929 0.0000 -0.9196
vn -0.9829 0.0000 -0.1842
vn -0.0110 0.0000 -0.9999
vn -0.8376 0.0000 -0.5464
vn 0.3725 0.0000 -0.9280
vn -0.5647 0.0000 -0.8253
vn -0.6444 0.0000 -0.7647
vn 0.6993 0.0000 -0.7149
vn -0.2214 0.0000 -0.9752
vn 0.9196 0.0000 -0.3928
vn 0.1817 0.0000 -0.9834
vn 0.9999 0.0000 -0.0110
vn 0.5734 0.0000 -0.8193
vn 0.9829 0.0000 0.1843
vn 0.8236 0.0000 -0.5672
vn 0.8375 0.0000 0.5464
vn 0.9779 0.0000 -0.2089
vn 0.5647 0.0000 0.8253
vn 0.9825 0.0000 0.1863
vn 0.2059 0.0000 0.9786
vn 0.8363 0.0000 0.5483
vn -0.1843 0.0000 0.9829
vn 0.5642 0.0000 0.8257
vn -0.9280 0.0000 -0.3725
vn -0.5464 0.0000 0.8375
vn 0.2058 0.0000 0.9786
vn -0.7149 0.0000 -0.6993
vn -0.8241 0.0000 0.5664
vn -0.3978 0.0000 -0.9175
vn -0.9777 0.0000 0.2099
vn -0.5464 0.0000 0.8376
vn -0.0371 0.0000 -0.9993
vn -0.9829 0.0000 -0.1843
vn -0.8253 0.0000 0.5647
vn 0.3792 0.0000 -0.9253
vn -0.8375 0.0000 -0.5464
vn -0.9786 0.0000 0.2059
vn 0.7065 0.0000 -0.7078
vn 0.9280 0.0000 0.3725
vn 0.9175 0.0000 -0.3977
vn -0.2059 0.0000 -0.9786
vn 0.7149 0.0000 0.6993
vn 0.9999 0.0000 -0.0161
vn 0.1843 0.0000 -0.9829
vn 0.3929 0.0000 0.9196
vn 0.9267 0.0000 0.3758
vn 0.5464 0.0000 -0.8375
vn 0.0110 0.0000 0.9999
vn 0.7140 0.0000 0.7002
vn 0.8253 0.0000 -0.5647
vn -0.3725 0.0000 0.9280
vn 0.3926 0.0000 0.9197
vn 0.9786 0.0000 -0.2059
vn -0.6993 0.0000 0.7149
vn -0.9183 0.0000 0.3958
vn 0.6429 0.0000 0.7660
vn -0.9999 0.0000 0.0152
vn -0.9196 0.0000 0.3929
vn -0.9999 0.0000 0.0110
vn -0.6547 0.7290 0.1999
vn -0.2398 0.6864 0.6865
vn -0.6815 0.7292 -0.0614
vn -0.4458 0.7281 0.5207
vn -0.6070 0.7293 -0.3156
vn -0.6050 0.7288 0.3207
vn -0.5343 0.7293 -0.4275
vn 0.1886 0.7292 -0.6578
vn -0.6807 0.7291 0.0709
vn -0.3309 0.7292 -0.5990
vn 0.4257 0.7291 -0.5359
vn -0.6567 0.7293 -0.1920
vn -0.0771 0.7292 -0.6800
vn 0.5982 0.7291 -0.3324
vn -0.6071 0.7293 -0.3156
vn 0.0568 0.7292 -0.6820
vn 0.6750 0.7246 -0.1390
vn -0.4410 0.7293 -0.5232
vn 0.3131 0.7292 -0.6085
vn 0.8330 0.5272 0.1679
vn -0.2080 0.7292 -0.6519
vn 0.5220 0.7291 -0.4426
vn 0.6884 0.5140 0.5118
vn 0.6439 0.7273 -0.2375
vn 0.4045 0.5440 0.7351
vn 0.8419 0.5396 0.0017
vn -0.1067 0.5375 0.8365
vn 0.7923 0.5063 0.3405
vn -0.3435 0.7275 0.5940
vn 0.4044 0.5441 0.7351
vn -0.5343 0.7285 0.4288
vn 0.0733 0.5538 0.8294
vn 0.6547 -0.7290 -0.1999
vn 0.2398 -0.6864 -0.6865
vn 0.6815 -0.7292 0.0614
vn 0.4458 -0.7281 -0.5207
vn 0.6070 -0.7293 0.3156
vn 0.6050 -0.7288 -0.3207
vn 0.1540 -0.9714 0.1805
vn -0.1050 -0.9719 0.2108
vn 0.6807 -0.7291 -0.0709
vn 0.0739 -0.9717 0.2245
vn -0.1772 -0.9719 0.1548
vn 0.6567 -0.7293 0.1920
vn -0.0169 -0.9718 0.2352
vn -0.3334 -0.9309 0.1491
vn 0.1865 -0.9712 0.1480
vn -0.0621 -0.9718 0.2273
vn -0.3723 -0.9237 0.0904
vn 0.1161 -0.9716 0.2063
vn -0.1438 -0.9719 0.1863
vn -0.3490 -0.9358 -0.0488
vn 0.0290 -0.9717 0.2342
vn -0.2038 -0.9719 0.1174
vn -0.1163 -0.9831 -0.1414
vn -0.3595 -0.9251 0.1224
vn -0.1265 -0.9189 -0.3737
vn -0.3840 -0.9231 0.0190
vn 0.1067 -0.5375 -0.8365
vn -0.1751 -0.9825 -0.0630
vn 0.3435 -0.7275 -0.5940
vn -0.4044 -0.5441 -0.7351
vn 0.5343 -0.7285 -0.4288
vn -0.0733 -0.5538 -0.8294
s off
f 53/1/1 22/2/1 21/3/1
f 48/4/2 17/5/2 16/6/2
f 55/7/3 24/8/3 23/9/3
f 50/10/4 19/11/4 18/12/4
f 57/13/5 26/14/5 25/15/5
f 52/16/6 21/3/6 20/17/6
f 27/18/7 60/19/7 28/20/7
f 1/21/8 34/22/8 2/23/8
f 54/24/9 23/9/9 22/2/9
f 29/25/10 62/26/10 30/27/10
f 3/28/11 36/29/11 4/30/11
f 56/31/12 25/15/12 24/8/12
f 31/32/13 64/33/13 32/34/13
f 5/35/14 38/36/14 6/37/14
f 26/14/15 59/38/15 27/18/15
f 32/34/16 33/39/16 1/21/16
f 7/40/17 40/41/17 8/42/17
f 28/20/18 61/43/18 29/25/18
f 2/23/19 35/44/19 3/28/19
f 9/45/20 42/46/20 10/47/20
f 30/27/21 63/48/21 31/32/21
f 4/30/22 37/49/22 5/35/22
f 11/50/23 66/51/23 65/52/23
f 6/37/24 39/53/24 7/40/24
f 13/54/25 46/55/25 14/56/25
f 8/42/26 41/57/26 9/45/26
f 47/58/27 16/6/27 15/59/27
f 10/47/28 43/60/28 11/50/28
f 49/61/29 18/12/29 17/5/29
f 44/62/30 13/54/30 12/63/30
f 51/64/31 20/17/31 19/11/31
f 46/55/32 15/59/32 14/56/32
f 12/63/33 68/65/33 44/62/33
f 90/66/34 122/67/34 89/68/34
f 85/69/35 117/70/35 84/71/35
f 92/72/36 124/73/36 91/74/36
f 87/75/37 119/76/37 86/77/37
f 94/78/38 126/79/38 93/80/38
f 89/68/39 121/81/39 88/82/39
f 95/83/40 129/84/40 128/85/40
f 69/86/41 103/87/41 102/88/41
f 91/74/42 123/89/42 90/66/42
f 97/90/43 131/91/43 130/92/43
f 71/93/44 105/94/44 104/95/44
f 93/80/45 125/96/45 92/72/45
f 99/97/46 133/98/46 132/99/46
f 73/100/47 107/101/47 106/102/47
f 94/78/48 128/85/48 127/103/48
f 100/104/49 102/88/49 133/98/49
f 75/105/50 109/106/50 108/107/50
f 96/108/51 130/92/51 129/84/51
f 70/109/52 104/95/52 103/87/52
f 77/110/53 111/111/53 110/112/53
f 98/113/54 132/99/54 131/91/54
f 72/114/55 106/102/55 105/94/55
f 79/115/56 113/116/56 112/117/56
f 74/118/57 108/107/57 107/101/57
f 81/119/58 115/120/58 114/121/58
f 76/122/59 110/112/59 109/106/59
f 84/71/60 116/123/60 83/124/60
f 78/125/61 112/117/61 111/111/61
f 86/77/62 118/126/62 85/69/62
f 81/119/63 134/127/63 101/128/63
f 88/82/64 120/129/64 87/75/64
f 83/124/65 115/120/65 82/130/65
f 101/131/33 136/132/33 135/133/33
f 54/24/66 122/134/66 123/135/66
f 1/21/67 100/136/67 32/34/67
f 56/31/68 124/137/68 125/138/68
f 3/28/69 70/139/69 2/23/69
f 58/140/70 126/141/70 127/142/70
f 5/35/71 72/143/71 4/30/71
f 68/65/72 135/133/72 136/132/72
f 60/19/73 128/144/73 129/145/73
f 7/40/74 74/146/74 6/37/74
f 67/147/33 101/131/33 135/133/33
f 62/26/75 130/148/75 131/149/75
f 9/45/76 76/150/76 8/42/76
f 44/62/33 136/132/33 134/151/33
f 64/33/77 132/152/77 133/153/77
f 11/50/78 78/154/78 10/47/78
f 33/39/79 133/153/79 102/155/79
f 13/54/80 101/131/80 12/63/80
f 35/44/81 103/156/81 104/157/81
f 15/59/82 82/158/82 14/56/82
f 37/49/83 105/159/83 106/160/83
f 17/5/84 84/161/84 16/6/84
f 39/53/85 107/162/85 108/163/85
f 19/11/86 86/164/86 18/12/86
f 41/57/87 109/165/87 110/166/87
f 21/3/88 88/167/88 20/17/88
f 2/23/89 69/168/89 1/21/89
f 43/60/90 111/169/90 112/170/90
f 23/9/91 90/171/91 22/2/91
f 4/30/92 71/172/92 3/28/92
f 45/173/93 134/151/93 114/174/93
f 25/15/87 92/175/87 24/8/87
f 6/37/94 73/176/94 5/35/94
f 47/58/95 115/177/95 116/178/95
f 27/18/96 94/179/96 26/14/96
f 8/42/97 75/180/97 7/40/97
f 49/61/98 117/181/98 118/182/98
f 29/25/99 96/183/99 28/20/99
f 10/47/100 77/184/100 9/45/100
f 51/64/101 119/185/101 120/186/101
f 31/32/102 98/187/102 30/27/102
f 65/52/103 79/188/103 11/50/103
f 53/1/71 121/189/71 122/134/71
f 34/22/104 102/155/104 103/156/104
f 14/56/105 81/190/105 13/54/105
f 55/7/106 123/135/106 124/137/106
f 36/29/107 104/157/107 105/159/107
f 16/6/108 83/191/108 15/59/108
f 57/13/109 125/138/109 126/141/109
f 38/36/110 106/160/110 107/162/110
f 18/12/111 85/192/111 17/5/111
f 59/38/112 127/142/112 128/144/112
f 40/41/113 108/163/113 109/165/113
f 20/17/114 87/193/114 19/11/114
f 61/43/115 129/145/115 130/148/115
f 42/46/116 110/166/116 111/169/116
f 22/2/117 89/194/117 21/3/117
f 63/48/118 131/149/118 132/152/118
f 66/51/119 112/170/119 113/195/119
f 24/8/113 91/196/113 23/9/113
f 46/55/120 114/174/120 115/177/120
f 26/14/116 93/197/116 25/15/116
f 66/51/121 80/198/121 65/52/121
f 48/4/122 116/178/122 117/181/122
f 28/20/119 95/199/119 27/18/119
f 50/10/89 118/182/89 119/185/89
f 30/27/123 97/200/123 29/25/123
f 52/16/92 120/186/92 121/189/92
f 32/34/124 99/201/124 31/32/124
f 53/1/125 54/24/125 22/2/125
f 48/4/126 49/61/126 17/5/126
f 55/7/127 56/31/127 24/8/127
f 50/10/128 51/64/128 19/11/128
f 57/13/129 58/140/129 26/14/129
f 52/16/130 53/1/130 21/3/130
f 27/18/131 59/38/131 60/19/131
f 1/21/132 33/39/132 34/22/132
f 54/24/133 55/7/133 23/9/133
f 29/25/134 61/43/134 62/26/134
f 3/28/135 35/44/135 36/29/135
f 56/31/136 57/13/136 25/15/136
f 31/32/137 63/48/137 64/33/137
f 5/35/138 37/49/138 38/36/138
f 26/14/139 58/140/139 59/38/139
f 32/34/140 64/33/140 33/39/140
f 7/40/141 39/53/141 40/41/141
f 28/20/142 60/19/142 61/43/142
f 2/23/143 34/22/143 35/44/143
f 9/45/144 41/57/144 42/46/144
f 30/27/145 62/26/145 63/48/145
f 4/30/146 36/29/146 37/49/146
f 11/50/147 43/60/147 66/51/147
f 6/37/148 38/36/148 39/53/148
f 13/54/149 45/173/149 46/55/149
f 8/42/150 40/41/150 41/57/150
f 47/58/151 48/4/151 16/6/151
f 10/47/152 42/46/152 43/60/152
f 49/61/153 50/10/153 18/12/153
f 44/62/154 45/173/154 13/54/154
f 51/64/155 52/16/155 20/17/155
f 46/55/156 47/58/156 15/59/156
f 12/63/33 67/147/33 68/65/33
f 90/66/157 123/89/157 122/67/157
f 85/69/158 118/126/158 117/70/158
f 92/72/159 125/96/159 124/73/159
f 87/75/160 120/129/160 119/76/160
f 94/78/161 127/103/161 126/79/161
f 89/68/162 122/67/162 121/81/162
f 95/83/163 96/108/163 129/84/163
f 69/86/164 70/109/164 103/87/164
f 91/74/165 124/73/165 123/89/165
f 97/90/166 98/113/166 131/91/166
f 71/93/167 72/114/167 105/94/167
f 93/80/168 126/79/168 125/96/168
f 99/97/169 100/104/169 133/98/169
f 73/100/170 74/118/170 107/101/170
f 94/78/171 95/83/171 128/85/171
f 100/104/172 69/86/172 102/88/172
f 75/105/173 76/122/173 109/106/173
f 96/108/174 97/90/174 130/92/174
f 70/109/175 71/93/175 104/95/175
f 77/110/176 78/125/176 111/111/176
f 98/113/177 99/97/177 132/99/177
f 72/114/178 73/100/178 106/102/178
f 79/115/179 80/202/179 113/116/179
f 74/118/180 75/105/180 108/107/180
f 81/119/181 82/130/181 115/120/181
f 76/122/182 77/110/182 110/112/182
f 84/71/183 117/70/183 116/123/183
f 78/125/184 79/115/184 112/117/184
f 86/77/185 119/76/185 118/126/185
f 81/119/186 114/121/186 134/127/186
f 88/82/187 121/81/187 120/129/187
f 83/124/188 116/123/188 115/120/188
f 101/131/33 134/151/33 136/132/33
f 54/24/66 53/1/66 122/134/66
f 1/21/67 69/168/67 100/136/67
f 56/31/68 55/7/68 124/137/68
f 3/28/69 71/172/69 70/139/69
f 58/140/70 57/13/70 126/141/70
f 5/35/71 73/176/71 72/143/71
f 68/65/72 67/147/72 135/133/72
f 60/19/73 59/38/73 128/144/73
f 7/40/74 75/180/74 74/146/74
f 67/147/33 12/63/33 101/131/33
f 62/26/75 61/43/75 130/148/75
f 9/45/76 77/184/76 76/150/76
f 44/62/33 68/65/33 136/132/33
f 64/33/77 63/48/77 132/152/77
f 11/50/78 79/188/78 78/154/78
f 33/39/79 64/33/79 133/153/79
f 13/54/80 81/190/80 101/131/80
f 35/44/81 34/22/81 103/156/81
f 15/59/82 83/191/82 82/158/82
f 37/49/83 36/29/83 105/159/83
f 17/5/84 85/192/84 84/161/84
f 39/53/85 38/36/85 107/162/85
f 19/11/86 87/193/86 86/164/86
f 41/57/87 40/41/87 109/165/87
f 21/3/88 89/194/88 88/167/88
f 2/23/89 70/139/89 69/168/89
f 43/60/96 42/46/96 111/169/96
f 23/9/91 91/196/91 90/171/91
f 4/30/92 72/143/92 71/172/92
f 45/173/93 44/62/93 134/151/93
f 25/15/87 93/197/87 92/175/87
f 6/37/94 74/146/94 73/176/94
f 47/58/95 46/55/95 115/177/95
f 27/18/96 95/199/96 94/179/96
f 8/42/97 76/150/97 75/180/97
f 49/61/98 48/4/98 117/181/98
f 29/25/99 97/200/99 96/183/99
f 10/47/100 78/154/100 77/184/100
f 51/64/101 50/10/101 119/185/101
f 31/32/102 99/201/102 98/187/102
f 65/52/103 80/198/103 79/188/103
f 53/1/71 52/16/71 121/189/71
f 34/22/104 33/39/104 102/155/104
f 14/56/105 82/158/105 81/190/105
f 55/7/106 54/24/106 123/135/106
f 36/29/107 35/44/107 104/157/107
f 16/6/108 84/161/108 83/191/108
f 57/13/109 56/31/109 125/138/109
f 38/36/110 37/49/110 106/160/110
f 18/12/111 86/164/111 85/192/111
f 59/38/112 58/140/112 127/142/112
f 40/41/113 39/53/113 108/163/113
f 20/17/114 88/167/114 87/193/114
f 61/43/115 60/19/115 129/145/115
f 42/46/116 41/57/116 110/166/116
f 22/2/117 90/171/117 89/194/117
f 63/48/118 62/26/118 131/149/118
f 66/51/119 43/60/119 112/170/119
f 24/8/113 92/175/113 91/196/113
f 46/55/120 45/173/120 114/174/120
f 26/14/116 94/179/116 93/197/116
f 66/51/121 113/195/121 80/198/121
f 48/4/122 47/58/122 116/178/122
f 28/20/119 96/183/119 95/199/119
f 50/10/89 49/61/89 118/182/89
f 30/27/123 98/187/123 97/200/123
f 52/16/92 51/64/92 120/186/92
f 32/34/124 100/136/124 99/201/124
