# Blender v2.93.1 OBJ File: 'castle2_uv.blend'
# www.blender.org
o rock4_Cube.021
v 6.549905 -0.391213 -8.426167
v 17.135666 0.995359 -14.723668
v 7.837443 3.127816 -9.347078
v 17.124802 -1.159613 -7.275160
v 8.801184 7.409061 -13.834345
v 9.387604 -0.318376 -18.949902
v 11.335078 -0.632647 -7.540127
v 13.261635 0.338492 -16.836784
v 12.374696 5.005783 -15.625251
v 12.369264 3.928297 -11.900997
v 11.985825 1.381225 -7.150591
v 6.352123 2.338280 -7.848817
v 7.466479 -0.212028 -13.377499
v 9.148471 3.968822 -16.879084
v 8.117226 1.801843 -12.987963
v 17.130234 -0.082127 -10.999414
v 7.681189 5.442139 -10.242571
v 13.256203 -0.738994 -13.112532
vt 0.840000 0.543000
vt 0.844000 0.519000
vt 0.795000 0.534000
vt 0.907000 0.573000
vt 0.886000 0.536000
vt 0.842000 0.632000
vt 0.839000 0.594000
vt 0.794000 0.585000
vt 0.573000 0.706000
vt 0.640000 0.669000
vt 0.564000 0.658000
vt 0.707000 0.629000
vt 0.700000 0.677000
vt 0.692000 0.721000
vt 0.773000 0.664000
vt 0.729000 0.606000
vt 0.797000 0.670000
vt 0.859000 0.683000
vt 0.815000 0.719000
vt 0.876000 0.731000
vt 0.756000 0.709000
vt 0.906000 0.624000
vt 0.973000 0.601000
vt 0.751000 0.526000
vt 0.632000 0.715000
vt 0.632000 0.621000
vt 0.560000 0.613000
vt 0.952000 0.564000
vt 0.931000 0.527000
vt 0.800000 0.511000
vt 0.849000 0.497000
vn 0.0789 0.8475 0.5249
vn -0.6658 0.6832 -0.3000
vn 0.4248 0.7316 0.5331
vn -0.0901 -0.9959 -0.0121
vn 0.2998 -0.9165 -0.2647
vn 0.6031 0.7660 0.2225
vn -0.9954 -0.0848 -0.0456
vn 0.0750 0.6651 -0.7430
vn 0.3788 0.4196 -0.8249
vn 0.2646 0.2891 -0.9200
vn 0.4166 0.3018 -0.8575
vn -0.9724 0.0553 -0.2269
vn -0.9723 0.0548 -0.2271
vn -0.9645 0.1137 -0.2385
vn 0.6178 0.7551 0.2194
vn -0.0422 -0.9981 -0.0439
vn 0.4030 0.7926 0.4575
vn 0.4154 0.7873 0.4557
vn -0.3344 0.3204 0.8863
vn -0.9826 -0.0325 -0.1831
vn -0.8749 0.3479 -0.3368
vn -0.8849 0.3462 -0.3117
vn -0.0605 -0.1707 0.9835
vn -0.1455 -0.1424 0.9791
vn -0.1883 -0.2163 0.9580
s off
f 3/1/1 12/2/1 11/3/1
f 3/1/2 15/4/2 12/5/2
f 5/6/3 17/7/3 10/8/3
f 6/9/4 18/10/4 13/11/4
f 4/12/5 18/10/5 16/13/5
f 2/14/6 9/15/6 16/16/6
f 3/1/7 17/7/7 15/4/7
f 5/6/8 9/17/8 14/18/8
f 14/18/9 8/19/9 6/20/9
f 14/18/10 9/17/10 8/19/10
f 9/17/11 2/21/11 8/19/11
f 15/4/12 14/22/12 6/23/12
f 15/4/13 17/7/13 14/22/13
f 17/7/14 5/6/14 14/22/14
f 16/16/6 10/8/6 4/24/6
f 16/16/6 9/15/6 10/8/6
f 9/15/15 5/6/15 10/8/15
f 16/13/5 8/25/5 2/14/5
f 16/13/5 18/10/5 8/25/5
f 18/10/5 6/9/5 8/25/5
f 13/11/16 7/26/16 1/27/16
f 13/11/4 18/10/4 7/26/4
f 18/10/4 4/12/4 7/26/4
f 10/8/17 11/3/17 4/24/17
f 10/8/18 17/7/18 11/3/18
f 17/7/19 3/1/19 11/3/19
f 12/5/20 13/28/20 1/29/20
f 12/5/21 15/4/21 13/28/21
f 15/4/22 6/23/22 13/28/22
f 11/3/23 7/30/23 4/24/23
f 11/3/24 12/2/24 7/30/24
f 12/2/25 1/31/25 7/30/25
