# Blender v2.93.1 OBJ File: 'map_origin.blend'
# www.blender.org
o shroom_Cylinder.029
v 10.645108 -0.889892 -2.982519
v 10.449005 -0.889892 -3.041469
v 10.603943 -0.889892 -3.152615
v 10.660214 -0.519808 -3.162061
v 10.538647 -0.515027 -3.000816
v 10.492132 -0.513690 -3.185122
v 10.423433 -0.523061 -3.433781
v 10.668512 -0.474022 -3.375654
v 10.888949 -0.524318 -3.259214
v 10.815269 -0.469691 -2.976127
v 10.592662 -0.519054 -2.764025
v 10.374528 -0.474925 -2.884415
v 10.279428 -0.475952 -3.151116
v 10.568393 -0.155877 -3.112915
v 10.448055 -0.466385 -3.305646
v 10.513118 -0.605922 -2.928954
v 10.431239 -0.604128 -3.198690
v 10.602642 -0.662428 -3.163112
v 10.513786 -0.648834 -2.973555
v 10.640757 -0.651924 -2.995596
v 10.460881 -0.649496 -3.086962
v 10.695689 -0.599843 -3.086941
v 10.575822 -0.594813 -3.217792
v 10.463108 -0.579865 -3.082422
v 10.578338 -0.580118 -2.995544
v 10.597368 -0.312851 -3.336902
v 10.787480 -0.296716 -3.120951
v 10.373127 -0.315303 -2.990221
v 10.380505 -0.317605 -3.237189
v 10.613415 -0.324558 -2.886667
vt 0.503000 0.486000
vt 0.568000 0.537000
vt 0.569000 0.538000
vt 0.631000 0.597000
vt 0.570000 0.539000
vt 0.490000 0.582000
vt 0.440000 0.552000
vt 0.462000 0.526000
vt 0.395000 0.563000
vt 0.421000 0.522000
vt 0.471000 0.482000
vt 0.390000 0.515000
vt 0.311000 0.665000
vt 0.342000 0.657000
vt 0.336000 0.689000
vt 0.372000 0.669000
vt 0.362000 0.628000
vt 0.322000 0.632000
vt 0.480000 0.635000
vt 0.543000 0.639000
vt 0.505000 0.664000
vt 0.473000 0.675000
vt 0.488000 0.717000
vt 0.425000 0.654000
vt 0.525000 0.684000
vt 0.499000 0.596000
vt 0.300000 0.562000
vt 0.292000 0.513000
vt 0.328000 0.513000
vt 0.389000 0.498000
vt 0.364000 0.520000
vt 0.320000 0.580000
vt 0.280000 0.605000
vt 0.340000 0.556000
vt 0.380000 0.515000
vt 0.349000 0.565000
vt 0.412000 0.646000
vt 0.373000 0.580000
vt 0.277000 0.642000
vt 0.320000 0.597000
vt 0.402000 0.719000
vt 0.631000 0.496000
vt 0.528000 0.603000
vt 0.446000 0.593000
vt 0.543000 0.708000
vt 0.435000 0.716000
vt 0.287000 0.715000
vt 0.346000 0.721000
vn 0.9719 -0.0053 -0.2352
vn -0.2827 -0.1890 0.9404
vn -0.5824 -0.0408 -0.8119
vn 0.1361 0.4877 -0.8624
vn -0.7512 0.6308 0.1942
vn 0.6003 0.4211 0.6799
vn 0.6973 -0.3013 -0.6504
vn -0.2812 0.7684 -0.5749
vn 0.4661 0.7517 -0.4665
vn -0.2340 0.7566 0.6106
vn -0.6421 0.7662 -0.0263
vn 0.4934 0.7415 0.4547
vn -0.1691 -0.9850 0.0355
vn 0.4782 -0.8624 -0.1663
vn -0.1011 -0.9720 -0.2123
vn 0.1047 -0.8855 0.4527
vn 0.6045 -0.7917 -0.0879
vn 0.1024 -0.7161 0.6905
vn -0.0596 -0.6419 -0.7645
vn -0.9527 0.0912 0.2898
vn 0.6160 0.3109 0.7238
vn -0.1606 0.9631 0.2159
vn -0.0870 0.9797 -0.1806
vn 0.5907 0.3843 0.7094
vn -0.8499 0.5261 -0.0303
vn -0.9213 0.2091 0.3277
vn 0.9345 0.3046 0.1844
vn -0.3299 0.5196 0.7882
vn -0.3184 0.5297 0.7862
vn 0.5801 0.5959 -0.5552
vn 0.9750 0.0056 -0.2222
vn 0.1721 0.0572 0.9834
vn -0.8996 0.1237 0.4189
vn -0.4784 -0.1404 -0.8668
vn 0.0000 -1.0000 0.0000
vn -0.6906 -0.5033 -0.5194
vn -0.5766 -0.2897 0.7639
vn 0.6005 0.6724 0.4328
vn -0.0450 -0.9615 -0.2710
vn 0.3461 -0.8808 0.3231
vn 0.0915 -0.9171 0.3881
vn -0.2769 -0.9543 0.1121
vn 0.1479 -0.9790 0.1405
vn -0.1889 -0.9794 0.0711
vn 0.0171 -0.9286 -0.3707
vn -0.2118 -0.9336 -0.2890
vn -0.8237 -0.4147 0.3867
vn 0.5333 0.5559 0.6377
vn -0.2487 -0.9186 -0.3070
vn 0.7088 -0.2518 -0.6590
vn -0.9490 -0.1298 0.2872
vn -0.8366 0.2772 -0.4724
vn 0.1634 0.2982 -0.9404
vn 0.6361 0.5529 0.5383
vn 0.4976 0.4042 -0.7675
vn -0.3416 0.6115 -0.7137
s off
f 18/1/1 1/2/1 3/3/1
f 19/4/2 2/5/2 1/2/2
f 18/1/3 3/3/3 2/5/3
f 23/6/4 6/7/4 4/8/4
f 24/9/5 5/10/5 6/7/5
f 22/11/6 5/10/6 25/12/6
f 23/6/7 4/8/7 22/11/7
f 29/13/8 14/14/8 26/15/8
f 26/15/9 14/14/9 27/16/9
f 30/17/10 14/14/10 28/18/10
f 28/18/11 14/14/11 29/13/11
f 27/16/12 14/14/12 30/17/12
f 5/19/13 13/20/13 6/21/13
f 4/22/14 8/23/14 10/24/14
f 4/22/15 15/25/15 8/23/15
f 5/19/16 10/24/16 12/26/16
f 18/27/17 22/28/17 20/29/17
f 20/29/18 16/30/18 19/31/18
f 18/27/19 17/32/19 23/33/19
f 21/34/20 16/30/20 17/32/20
f 22/28/21 25/35/21 16/30/21
f 16/30/22 25/35/22 24/36/22
f 17/32/23 24/36/23 23/33/23
f 10/37/24 30/17/24 11/38/24
f 13/39/25 28/18/25 29/13/25
f 12/40/26 28/18/26 13/39/26
f 9/41/27 27/16/27 10/37/27
f 11/38/28 28/18/28 12/40/28
f 11/38/29 30/17/29 28/18/29
f 9/41/30 26/15/30 27/16/30
f 18/1/31 20/42/31 1/2/31
f 20/42/32 19/4/32 1/2/32
f 19/4/33 21/43/33 2/5/33
f 21/43/34 18/1/34 2/5/34
f 3/3/35 1/2/35 2/5/35
f 23/6/36 24/9/36 6/7/36
f 24/9/37 25/12/37 5/10/37
f 22/11/38 4/8/38 5/10/38
f 12/26/39 10/24/39 11/44/39
f 15/25/40 13/20/40 7/45/40
f 8/23/41 15/25/41 7/45/41
f 10/24/42 8/23/42 9/46/42
f 5/19/43 4/22/43 10/24/43
f 5/19/44 12/26/44 13/20/44
f 4/22/45 6/21/45 15/25/45
f 6/21/46 13/20/46 15/25/46
f 21/34/47 19/31/47 16/30/47
f 20/29/48 22/28/48 16/30/48
f 18/27/49 21/34/49 17/32/49
f 18/27/50 23/33/50 22/28/50
f 17/32/51 16/30/51 24/36/51
f 7/47/52 13/39/52 29/13/52
f 8/48/53 7/47/53 26/15/53
f 10/37/54 27/16/54 30/17/54
f 9/41/55 8/48/55 26/15/55
f 7/47/56 29/13/56 26/15/56
