# Blender v2.93.1 OBJ File: 'map_origin.blend'
# www.blender.org
o tree_leaves_Sphere.009
v -2.047462 4.330445 2.084493
v -0.937269 4.852145 1.061671
v -1.655120 4.217455 1.299770
v -1.048008 4.511695 2.013194
v -0.805931 5.637268 1.876275
v -1.064006 5.145459 2.402559
v -2.292374 5.118957 2.576894
v -1.403644 6.297631 1.443091
v -1.621110 5.871395 2.508682
v -2.891675 5.292776 1.655905
v -2.595551 4.590256 1.499083
v -1.329485 5.643298 0.336995
v -1.307845 5.067104 0.716336
v -1.119193 5.967709 1.030426
v -2.175319 6.195285 1.980203
v -1.895859 6.661857 1.044082
v -2.714743 6.464125 1.217395
v -2.649265 4.863503 0.552876
v -1.936745 4.799979 0.497054
v -3.351992 4.614314 1.045956
v -4.663327 5.472764 0.970574
v -3.471034 4.870924 1.622095
v -4.361552 5.460392 1.700747
v -3.397606 5.619660 1.965085
v -3.860209 6.367673 1.645868
v -4.408052 6.341482 1.005536
v -3.823479 6.543500 0.362142
v -2.886686 6.203636 1.503920
v -3.195279 6.791412 0.743661
v -2.043149 6.374114 0.321685
v -2.722183 6.593194 -0.270771
v -3.624987 6.067415 -0.394443
v -2.901680 5.588441 -0.573829
v -2.136051 5.642621 -0.001445
v -2.597138 5.095782 -0.290979
v -3.600918 4.080114 0.551119
v -4.320225 4.748974 0.734886
v -4.487213 5.478274 0.316844
v -4.566050 4.928785 -0.261821
v -4.052057 5.249463 -0.878888
v -3.376384 5.254683 -0.899775
v -3.368947 4.555494 -0.801349
v -2.769665 4.326797 -0.009916
v -3.926064 4.148610 -0.262103
v -4.074814 6.000971 0.056064
vt 0.199847 0.406470
vt 0.196791 0.434724
vt 0.174175 0.408622
vt 0.150831 0.420556
vt 0.161129 0.395124
vt 0.044035 0.261704
vt 0.058347 0.238857
vt 0.075030 0.259097
vt 0.141764 0.404342
vt 0.097816 0.406373
vt 0.117871 0.386284
vt 0.138674 0.433347
vt 0.130200 0.423037
vt 0.050408 0.333117
vt 0.065145 0.321756
vt 0.059441 0.350580
vt 0.146260 0.313291
vt 0.150831 0.330142
vt 0.121901 0.318843
vt 0.130938 0.350574
vt 0.163300 0.259655
vt 0.180158 0.265316
vt 0.164023 0.292250
vt 0.186003 0.289510
vt 0.083860 0.446869
vt 0.061788 0.415905
vt 0.083860 0.413947
vt 0.123524 0.386284
vt 0.145921 0.358088
vt 0.150831 0.376383
vt 0.117263 0.367275
vt 0.049874 0.304920
vt 0.108308 0.339239
vt 0.097816 0.365718
vt 0.057316 0.389247
vt 0.055996 0.417936
vt 0.047110 0.411717
vt 0.078228 0.306845
vt 0.076563 0.292306
vt 0.208463 0.247809
vt 0.190941 0.238857
vt 0.057316 0.449143
vt 0.048933 0.280485
vt 0.067960 0.273642
vt 0.191899 0.363887
vt 0.175978 0.339695
vt 0.199645 0.334810
vt 0.172397 0.355643
vt 0.132233 0.249753
vt 0.148285 0.238857
vt 0.134151 0.270339
vt 0.073842 0.413947
vt 0.057316 0.387196
vt 0.087144 0.383642
vt 0.163300 0.258708
vt 0.150403 0.281711
vt 0.178940 0.379108
vt 0.228795 0.329204
vt 0.228795 0.354088
vt 0.199645 0.338539
vt 0.203126 0.360369
vt 0.226446 0.394535
vt 0.226446 0.423338
vt 0.200905 0.405826
vt 0.163300 0.295519
vt 0.072585 0.370060
vt 0.091863 0.365111
vt 0.031207 0.295228
vt 0.023495 0.321408
vt 0.166001 0.434724
vt 0.208463 0.276252
vt 0.226578 0.271848
vt 0.226578 0.297003
vt 0.208463 0.293681
vt 0.109049 0.244927
vt 0.123844 0.286062
vt 0.098820 0.268113
vt 0.110907 0.295651
vt 0.097816 0.283147
vt 0.079911 0.349761
vt 0.089719 0.321473
vt 0.097816 0.352275
vt 0.092224 0.243574
vt 0.097816 0.271459
vt 0.207488 0.300132
vt 0.108045 0.433347
vt 0.028285 0.367239
vt 0.057170 0.365111
vt 0.023495 0.399580
vt 0.057316 0.439663
vt 0.091863 0.411954
vt 0.151469 0.375422
vt 0.209038 0.313291
vt 0.199645 0.383820
vt 0.213349 0.383820
vt 0.199847 0.428183
vt 0.208463 0.254818
vt 0.224053 0.238857
vt 0.224053 0.271848
vt 0.134797 0.313291
vt 0.194247 0.313291
vt 0.166707 0.319898
vt 0.150831 0.342506
vt 0.062631 0.365111
vt 0.188902 0.383820
vn -0.6411 -0.7426 0.1938
vn -0.4015 -0.4822 -0.7786
vn 0.9449 0.1459 -0.2930
vn 0.1501 -0.4897 0.8589
vn 0.9377 -0.1644 0.3062
vn 0.6030 -0.0828 -0.7934
vn 0.1312 -0.5165 0.8461
vn 0.6320 0.3869 0.6715
vn 0.5290 0.7452 0.4060
vn -0.7915 -0.4305 0.4338
vn -0.7289 -0.5109 0.4557
vn 0.4001 0.8920 0.2104
vn 0.6338 0.6089 -0.4771
vn 0.6075 0.6876 -0.3977
vn 0.6005 -0.0853 -0.7951
vn -0.1310 0.9023 0.4106
vn -0.3358 0.7885 0.5153
vn -0.1129 -0.5256 -0.8432
vn -0.1065 -0.9569 -0.2703
vn 0.3306 0.9433 -0.0301
vn 0.4628 -0.4753 -0.7483
vn 0.5448 -0.7341 0.4054
vn 0.5131 -0.7396 0.4355
vn -0.8160 0.5364 -0.2153
vn -0.4388 -0.7324 0.5207
vn -0.6888 0.5710 -0.4466
vn 0.2574 -0.4232 0.8687
vn -0.6978 0.4206 0.5798
vn -0.8939 0.2476 0.3736
vn 0.2158 0.8129 0.5409
vn -0.3528 0.9353 -0.0269
vn -0.9043 -0.3484 -0.2466
vn 0.3640 0.3373 -0.8682
vn 0.6807 0.2219 -0.6981
vn 0.2279 0.8426 0.4880
vn 0.4577 -0.4463 -0.7690
vn -0.7709 -0.6324 0.0760
vn -0.4100 -0.8005 -0.4371
vn -0.9704 -0.0948 0.2222
vn -0.8135 0.4730 -0.3383
vn -0.6012 0.6156 -0.5095
vn -0.7811 0.4772 -0.4026
vn 0.1670 0.5570 -0.8136
vn 0.5988 -0.1054 -0.7939
vn 0.2278 -0.8758 -0.4255
vn 0.7078 0.0958 -0.6999
vn 0.6099 -0.7660 -0.2031
vn 0.1896 -0.9540 0.2322
vn 0.9778 -0.2054 0.0403
vn 0.7468 0.6649 -0.0168
vn 0.1412 -0.0363 0.9893
vn 0.1540 0.9062 0.3939
vn -0.4496 0.4700 0.7596
vn -0.7378 0.3869 0.5531
vn -0.3782 -0.9240 -0.0560
vn 0.3892 -0.6752 -0.6266
vn 0.9643 -0.1195 -0.2365
vn 0.6587 0.7397 -0.1373
vn -0.5497 0.1404 0.8235
vn -0.9245 -0.3771 -0.0564
vn 0.3526 -0.4133 -0.8396
vn -0.1036 0.7661 0.6343
vn -0.2393 -0.9044 0.3534
vn -0.8088 -0.4895 0.3260
vn -0.1818 -0.3947 0.9006
vn -0.2914 0.2174 0.9316
vn 0.5773 0.1313 0.8059
vn 0.2060 0.4891 0.8476
vn -0.2980 0.9296 0.2170
vn -0.8730 0.2728 -0.4042
vn -0.2840 0.9093 -0.3043
vn -0.2020 0.9392 -0.2777
vn -0.6160 0.5838 -0.5289
vn -0.3571 0.7455 -0.5628
vn -0.0412 0.2953 -0.9545
vn 0.5870 0.1358 -0.7981
vn 0.7890 -0.6031 -0.1173
vn 0.5323 -0.6953 0.4829
vn 0.5776 -0.6489 0.4953
vn -0.3232 -0.5576 0.7646
vn -0.0304 0.5211 -0.8530
vn 0.6806 -0.3813 -0.6256
vn -0.0295 -0.1396 -0.9898
vn -0.5541 -0.4543 -0.6976
vn 0.1834 -0.9707 -0.1551
vn 0.9757 -0.2189 0.0000
s off
f 36/1/1 37/2/1 44/3/1
f 44/3/2 40/4/2 42/5/2
f 14/6/3 5/7/3 2/8/3
f 4/9/4 7/10/4 1/11/4
f 4/9/5 5/12/5 6/13/5
f 33/14/6 35/15/6 41/16/6
f 6/13/7 7/10/7 4/9/7
f 6/17/8 5/18/8 9/19/8
f 5/18/9 8/20/9 9/19/9
f 10/21/10 11/22/10 7/23/10
f 7/23/11 11/22/11 1/24/11
f 30/25/12 29/26/12 17/27/12
f 30/28/13 14/29/13 12/30/13
f 30/28/14 16/31/14 14/29/14
f 33/14/15 34/32/15 35/15/15
f 15/33/16 16/31/16 17/34/16
f 15/35/17 17/36/17 28/37/17
f 18/38/18 34/32/18 19/39/18
f 19/40/19 11/22/19 18/41/19
f 31/42/20 29/26/20 30/25/20
f 19/39/21 12/43/21 13/44/21
f 10/45/22 20/46/22 18/47/22
f 20/46/23 10/45/23 22/48/23
f 38/49/24 21/50/24 45/51/24
f 22/52/25 23/53/25 37/54/25
f 45/51/26 26/55/26 27/56/26
f 22/48/27 10/45/27 24/57/27
f 25/58/28 26/59/28 23/60/28
f 23/60/29 26/59/29 21/61/29
f 28/62/30 29/63/30 25/64/30
f 26/55/31 29/65/31 27/56/31
f 37/54/32 21/66/32 38/67/32
f 12/43/33 34/32/33 30/68/33
f 30/68/34 34/32/34 31/69/34
f 15/33/35 8/20/35 16/31/35
f 2/8/36 19/39/36 13/44/36
f 39/70/37 44/3/37 37/2/37
f 11/22/38 19/40/38 3/71/38
f 37/72/39 38/73/39 39/74/39
f 45/51/40 39/75/40 38/49/40
f 32/76/41 40/77/41 45/51/41
f 45/51/42 40/77/42 39/75/42
f 33/78/43 41/79/43 32/76/43
f 41/16/44 35/15/44 42/80/44
f 42/80/45 43/81/45 44/82/45
f 2/8/46 13/44/46 14/6/46
f 2/8/47 4/83/47 3/84/47
f 3/71/48 4/85/48 1/24/48
f 2/8/49 5/7/49 4/83/49
f 14/29/50 8/20/50 5/18/50
f 6/13/51 9/86/51 7/10/51
f 9/19/52 8/20/52 15/33/52
f 7/87/53 9/88/53 15/35/53
f 15/35/54 10/89/54 7/87/54
f 11/22/55 3/71/55 1/24/55
f 3/84/56 19/39/56 2/8/56
f 13/44/57 12/43/57 14/6/57
f 14/29/58 16/31/58 8/20/58
f 15/35/59 28/37/59 10/89/59
f 10/21/60 18/41/60 11/22/60
f 19/39/61 34/32/61 12/43/61
f 29/90/62 28/37/62 17/36/62
f 20/91/63 22/52/63 37/54/63
f 37/54/64 23/53/64 21/66/64
f 23/92/65 22/48/65 24/57/65
f 24/93/66 25/58/66 23/60/66
f 10/45/67 28/94/67 24/57/67
f 25/64/68 24/95/68 28/62/68
f 25/64/69 29/63/69 26/96/69
f 21/50/70 26/55/70 45/51/70
f 16/97/71 30/98/71 17/99/71
f 27/56/72 29/65/72 31/100/72
f 27/56/73 32/76/73 45/51/73
f 32/76/74 27/56/74 31/100/74
f 32/76/75 31/100/75 33/78/75
f 31/69/76 34/32/76 33/14/76
f 18/38/77 35/15/77 34/32/77
f 43/101/78 20/46/78 36/102/78
f 43/101/79 18/47/79 20/46/79
f 36/102/80 20/46/80 37/103/80
f 32/76/81 41/79/81 40/77/81
f 43/81/82 42/80/82 35/15/82
f 41/16/83 42/80/83 40/104/83
f 39/70/84 40/4/84 44/3/84
f 36/1/85 44/3/85 43/105/85
f 43/81/86 35/15/86 18/38/86
