# Blender v2.93.1 OBJ File: 'map_origin.blend'
# www.blender.org
o tree_ground_Plane.002
v -4.978484 -1.065105 4.978484
v 4.978484 -1.065105 4.978484
v -4.978484 -1.065105 -4.978484
v 4.978484 -1.065105 -4.978484
v -4.978484 -0.693240 0.000000
v 0.000000 -0.693240 4.978484
v 4.978484 -0.693240 0.000000
v 0.000000 -0.693240 -4.978484
v 0.000000 2.477068 0.000000
v -4.978484 -0.855384 2.489242
v 2.489242 -0.855384 4.978484
v 4.978484 -0.855384 -2.489242
v -2.489242 -0.855384 -4.978484
v -4.978484 -0.855384 -2.489242
v -2.489242 -0.855384 4.978484
v 4.978484 -0.855384 2.489242
v 2.489242 -0.855384 -4.978484
v 0.000000 0.490181 -2.489242
v 0.000000 0.490181 2.489242
v -2.489242 0.490181 0.000000
v 2.489242 0.490181 0.000000
v 2.489242 -0.097485 2.489242
v -2.489242 -0.097485 2.489242
v -2.489242 -0.097485 -2.489242
v 2.489242 -0.097485 -2.489242
vt 0.631268 0.395268
vt 0.676537 0.395268
vt 0.676537 0.440537
vt 0.631268 0.440537
vt 0.540732 0.395268
vt 0.586000 0.395268
vt 0.586000 0.440537
vt 0.540732 0.440537
vt 0.540732 0.304732
vt 0.586000 0.304732
vt 0.586000 0.350000
vt 0.540732 0.350000
vt 0.631268 0.304732
vt 0.676537 0.304732
vt 0.676537 0.350000
vt 0.631268 0.350000
vt 0.586000 0.259463
vt 0.631268 0.259463
vt 0.676537 0.259463
vt 0.495463 0.304732
vt 0.495463 0.350000
vt 0.495463 0.259463
vt 0.540732 0.259463
vt 0.495463 0.395268
vt 0.495463 0.440537
vn 0.1874 0.9642 -0.1874
vn -0.1390 0.9226 -0.3598
vn -0.4174 0.8072 0.4174
vn 0.3598 0.9226 0.1390
vn 0.4174 0.8072 0.4174
vn 0.1390 0.9226 0.3598
vn 0.1874 0.9642 0.1874
vn -0.3598 0.9226 0.1390
vn -0.1874 0.9642 0.1874
vn -0.1390 0.9226 0.3598
vn -0.1874 0.9642 -0.1874
vn -0.3598 0.9226 -0.1390
vn -0.4174 0.8072 -0.4174
vn 0.1390 0.9226 -0.3598
vn 0.4174 0.8072 -0.4174
vn 0.3598 0.9226 -0.1390
s off
f 25/1/1 12/2/1 4/3/1 17/4/1
f 24/5/2 18/6/2 8/7/2 13/8/2
f 23/9/3 19/10/3 9/11/3 20/12/3
f 22/13/4 16/14/4 7/15/4 21/16/4
f 19/10/5 22/13/5 21/16/5 9/11/5
f 6/17/6 11/18/6 22/13/6 19/10/6
f 11/18/7 2/19/7 16/14/7 22/13/7
f 10/20/8 23/9/8 20/12/8 5/21/8
f 1/22/9 15/23/9 23/9/9 10/20/9
f 15/23/10 6/17/10 19/10/10 23/9/10
f 14/24/11 24/5/11 13/8/11 3/25/11
f 5/21/12 20/12/12 24/5/12 14/24/12
f 20/12/13 9/11/13 18/6/13 24/5/13
f 18/6/14 25/1/14 17/4/14 8/7/14
f 9/11/15 21/16/15 25/1/15 18/6/15
f 21/16/16 7/15/16 12/2/16 25/1/16
