# Blender v2.93.1 OBJ File: 'castle2_uv.blend'
# www.blender.org
o wall#0;-1;0;3_Cube.024
v 7.687471 1.231637 5.816435
v 7.818951 -0.931783 7.816435
v 6.426399 -0.931783 5.816435
v 6.557878 1.231637 5.816435
v 7.818951 -0.931783 5.816435
v 7.702173 1.325714 6.816435
v 7.510501 0.972070 5.816435
v 7.691962 1.166863 7.317571
v 7.687472 -0.390928 7.816435
v 6.557878 -0.390928 7.816435
v 6.550528 1.278675 6.316435
v 6.557878 -0.390928 5.816435
v 7.687471 -0.390928 5.816435
v 7.702173 1.325714 6.316435
v 7.510501 0.972070 7.816435
v 6.426399 -0.661355 7.816435
v 6.553462 1.166788 6.065013
v 7.546272 1.231637 5.816435
v 7.687471 0.961209 5.816435
v 7.694822 1.278675 6.566435
v 6.426399 -0.931783 7.816435
v 6.543177 1.325714 7.066435
v 6.675446 1.342928 6.816435
v 7.694822 1.278675 7.066435
v 6.553328 1.166924 6.565791
v 7.818951 -0.661355 5.816435
v 7.694822 1.278675 6.066435
v 7.582389 1.389129 7.816435
v 6.557878 0.961209 7.816435
v 6.543177 1.325714 7.566435
v 6.557878 0.961209 5.816435
v 6.699077 1.231637 5.816435
v 6.557878 0.961209 6.816435
v 7.640932 0.854032 6.816435
v 7.652986 0.254629 7.520640
v 7.661607 0.267013 6.100780
v 7.670229 0.279397 7.301170
v 7.661607 0.267013 5.862229
v 7.661607 0.267013 6.339332
v 6.734849 0.972070 7.816435
v 6.675446 1.342928 7.316435
v 6.675446 1.342928 6.316435
v 6.575121 0.279397 7.543538
v 6.603120 0.853250 6.356487
v 6.592364 0.254629 6.816435
v 6.575121 0.279397 7.058803
v 7.687472 0.961209 7.066435
v 6.575121 0.279397 6.574068
v 6.592364 0.254629 5.877494
v 6.734848 0.972070 5.816435
v 6.687262 1.287283 6.566435
v 6.687261 1.287283 6.066435
v 6.687262 1.287283 7.566435
v 6.687262 1.287283 7.066435
v 6.699077 0.961209 5.816435
v 6.559269 0.958411 7.426041
v 7.661607 0.267013 6.577883
v 7.652986 0.254629 7.051170
v 7.546273 0.961209 7.816435
v 6.592364 0.254629 7.285906
v 7.686080 0.958411 6.206829
v 6.575121 0.279397 6.089332
v 7.687472 0.961209 6.566435
v 6.592364 0.254629 6.346964
v 7.670229 0.279397 6.816435
v 7.546272 0.961209 5.816435
v 6.699078 0.961209 7.816435
v 7.691451 0.961322 7.809288
v 7.694823 1.278675 7.566435
v 7.726030 1.376901 7.816435
v 6.655923 1.399995 7.816435
v 6.536319 1.341231 7.816435
v 6.550528 1.278675 6.816435
v 7.758493 1.405746 7.316435
v 6.550528 1.278675 7.316435
v 6.486857 1.405746 6.066435
v 6.486857 1.405746 6.566435
v 7.558088 1.287283 6.816435
v 7.558088 1.287283 7.316435
v 7.558088 1.287283 6.316435
v 7.569904 1.342928 6.566435
v 7.569904 1.342928 7.566435
v 7.569904 1.342928 7.066435
v 7.569904 1.342928 6.066435
v 6.609607 0.149927 6.816435
v 7.635743 0.149927 6.816435
v 7.635743 0.149927 5.908023
v 7.635743 0.857161 7.724846
v 7.635743 0.760930 7.724846
v 6.609607 0.857161 7.724847
v 6.609607 0.760930 7.724847
v 6.609607 0.886905 5.908023
v 6.609607 0.149927 5.908023
v 6.609607 0.857161 6.816435
v 6.609607 0.760930 6.816435
v 7.635743 0.760930 6.816435
v 7.635743 0.760930 6.589332
v 7.635743 0.760930 6.135126
v 7.635743 0.760930 6.362229
v 7.635743 0.149927 6.362229
v 6.609607 0.760930 7.043538
v 6.609607 0.760930 7.497744
v 6.609607 0.760930 7.270641
v 6.609607 0.149927 7.270641
v 6.609607 0.857161 7.270641
v 6.609607 0.760930 6.135126
v 6.609607 0.760930 6.589332
v 6.609607 0.760930 6.362229
v 6.609607 0.149927 6.362229
v 7.635743 0.760930 7.497744
v 7.635743 0.760930 7.043538
v 7.635743 0.760930 7.270640
v 7.635743 0.149927 7.270640
v 7.635408 0.857367 7.371213
v 7.635743 0.886905 5.908023
v 7.635743 0.857161 7.043538
v 7.635743 0.149927 7.043538
v 7.635743 0.149927 7.497744
v 6.609607 0.857161 6.589332
v 6.609607 0.149927 6.589332
v 6.609607 0.149927 6.135126
v 6.609538 -0.496187 7.726142
v 6.609607 0.857161 7.497744
v 6.609607 0.149927 7.497744
v 6.609607 0.149927 7.043538
v 7.635776 -0.495924 5.901198
v 7.635743 0.149927 6.135126
v 7.635743 0.149927 6.589332
v 7.635743 0.857161 6.589332
v 6.604418 0.854032 7.045835
v 6.609607 0.857161 6.135126
v 7.817296 -0.661246 7.817298
v 6.428054 -0.661246 5.815572
v 7.635783 -0.495910 7.731682
v 6.609570 -0.495933 5.901195
v 6.534102 -0.674099 7.763161
v 7.711247 -0.674099 5.869709
vt 0.596000 0.871000
vt 0.646000 0.886000
vt 0.643000 0.870000
vt 0.734000 0.735000
vt 0.739000 0.712000
vt 0.718000 0.715000
vt 0.622000 0.983000
vt 0.762000 0.856000
vt 0.731000 0.875000
vt 0.695000 0.871000
vt 0.665000 0.890000
vt 0.947000 0.967000
vt 0.924000 0.897000
vt 0.888000 0.885000
vt 0.851000 0.880000
vt 0.803000 0.868000
vt 0.756000 0.797000
vt 0.713000 0.782000
vt 0.749000 0.731000
vt 0.813000 0.711000
vt 0.844000 0.590000
vt 0.819000 0.744000
vt 0.758000 0.801000
vt 0.798000 0.791000
vt 0.843000 0.822000
vt 0.876000 0.837000
vt 0.896000 0.817000
vt 0.983000 0.072000
vt 0.754000 0.012000
vt 0.983000 0.012000
vt 0.616000 0.546000
vt 0.680000 0.233000
vt 0.650000 0.237000
vt 0.677000 0.235000
vt 0.651000 0.242000
vt 0.651000 0.147000
vt 0.739000 0.709000
vt 0.705000 0.695000
vt 0.987000 0.591000
vt 0.948000 0.389000
vt 0.969000 0.258000
vt 0.685000 0.724000
vt 0.654000 0.583000
vt 0.663000 0.766000
vt 0.973000 0.162000
vt 0.653000 0.087000
vt 0.974000 0.103000
vt 0.783000 0.705000
vt 0.649000 0.532000
vt 0.655000 0.508000
vt 0.962000 0.581000
vt 0.651000 0.147000
vt 0.674000 0.191000
vt 0.971000 0.167000
vt 0.773000 0.386000
vt 0.942000 0.251000
vt 0.855000 0.720000
vt 0.782000 0.813000
vt 0.731000 0.811000
vt 0.704000 0.370000
vt 0.655000 0.512000
vt 0.841000 0.381000
vt 0.805000 0.384000
vt 0.944000 0.248000
vt 0.951000 0.203000
vt 0.773000 0.381000
vt 0.688000 0.530000
vt 0.806000 0.380000
vt 0.967000 0.267000
vt 0.742000 0.376000
vt 0.911000 0.389000
vt 0.947000 0.394000
vt 0.875000 0.385000
vt 0.677000 0.846000
vt 0.664000 0.862000
vt 0.618000 0.835000
vt 0.963000 0.951000
vt 0.918000 0.856000
vt 0.957000 0.812000
vt 0.921000 0.864000
vt 0.968000 0.836000
vt 0.887000 0.889000
vt 0.917000 0.902000
vt 0.752000 0.872000
vt 0.785000 0.804000
vt 0.783000 0.883000
vt 0.723000 0.815000
vt 0.631000 0.970000
vt 0.622000 0.953000
vt 0.663000 0.879000
vt 0.890000 0.837000
vt 0.854000 0.825000
vt 0.884000 0.743000
vt 0.627000 0.626000
vt 0.644000 0.758000
vt 0.660000 0.846000
vt 0.691000 0.818000
vt 0.790000 0.696000
vt 0.833000 0.594000
vt 0.960000 0.954000
vt 0.716000 0.880000
vt 0.816000 0.871000
vt 0.853000 0.896000
vt 0.870000 0.609000
vt 0.951000 0.622000
vt 0.982000 0.660000
vt 0.956000 0.623000
vt 0.982000 0.671000
vt 0.761000 0.562000
vt 0.727000 0.566000
vt 0.877000 0.623000
vt 0.724000 0.563000
vt 0.759000 0.572000
vt 0.947000 0.982000
vt 0.754000 0.072000
vt 0.677000 0.886000
vt 0.974000 0.105000
vt 0.624000 0.546000
vt 0.896000 0.732000
vt 0.650000 0.600000
vt 0.631000 0.642000
vt 0.691000 0.752000
vt 0.986000 0.592000
vt 0.964000 0.581000
vt 0.601000 0.816000
vt 0.814000 0.811000
vt 0.650000 0.533000
vt 0.612000 0.968000
vt 0.802000 0.536000
vt 0.892000 0.542000
vt 0.912000 0.388000
vt 0.932000 0.536000
vt 0.724000 0.531000
vt 0.738000 0.377000
vt 0.876000 0.385000
vt 0.709000 0.366000
vt 0.840000 0.379000
vt 0.842000 0.533000
vt 0.891000 0.539000
vt 0.933000 0.537000
vt 0.688000 0.533000
vt 0.766000 0.542000
vt 0.773000 0.698000
vt 0.653000 0.088000
vt 0.842000 0.532000
vt 0.769000 0.539000
vt 0.801000 0.533000
vt 0.723000 0.527000
vn -0.0000 0.0000 1.0000
vn -0.8951 -0.4450 -0.0263
vn 0.9962 0.0816 -0.0289
vn 0.9905 0.1365 -0.0164
vn 0.9905 0.1365 0.0164
vn 0.9855 0.1697 -0.0088
vn 0.9997 -0.0231 0.0011
vn 0.4048 -0.0000 0.9144
vn -0.9997 -0.0231 -0.0008
vn 0.9826 0.1812 0.0415
vn 0.9855 0.1697 0.0088
vn -0.9575 -0.2675 0.1079
vn 0.0000 1.0000 0.0000
vn -0.8680 0.0000 -0.4966
vn 0.6123 0.2917 -0.7348
vn 0.8928 -0.4497 0.0266
vn 0.8707 0.0000 0.4918
vn -0.9475 0.0190 -0.3193
vn 1.0000 0.0000 -0.0000
vn 0.8928 -0.4497 -0.0266
vn -0.8780 -0.4779 0.0269
vn -0.8707 0.0000 -0.4918
vn 0.1176 0.9931 0.0002
vn -1.0000 0.0001 -0.0000
vn -0.9921 -0.1188 0.0413
vn -0.9576 -0.2668 0.1083
vn 0.9576 -0.2672 -0.1081
vn 1.0000 0.0000 -0.0001
vn 1.0000 0.0001 0.0000
vn -0.1176 0.9931 -0.0002
vn -0.6123 0.2917 0.7348
vn -0.9207 0.3904 0.0000
vn 0.9925 -0.0810 -0.0921
vn 0.0000 0.0000 -1.0000
vn -0.9998 0.0000 -0.0178
vn 0.0000 0.9136 -0.4067
vn -0.2526 0.9469 -0.1988
vn -0.9994 -0.0231 -0.0250
vn 0.9835 -0.1277 0.1283
vn 0.9991 -0.0371 -0.0224
vn -0.9974 -0.0343 -0.0635
vn -0.7452 0.0968 0.6598
vn -0.9991 -0.0351 -0.0228
vn -0.3906 -0.0010 0.9206
vn 0.6345 0.7023 -0.3228
vn -0.9968 0.0191 -0.0778
vn -0.9957 -0.0550 -0.0746
vn 0.9994 -0.0231 0.0250
vn -0.9909 -0.1268 -0.0457
vn 0.9993 -0.0372 0.0000
vn 0.9969 -0.0285 0.0738
vn -0.9966 -0.0295 -0.0763
vn -0.9848 0.1737 -0.0079
vn -0.9929 0.1167 0.0210
vn -0.4468 0.8686 0.2144
vn 0.9888 0.1493 -0.0000
vn 0.0000 0.9761 -0.2173
vn -0.4501 0.8751 -0.1779
vn -0.9863 0.1647 0.0100
vn -0.9853 0.1698 0.0178
vn -1.0000 0.0061 -0.0008
vn -0.8712 -0.0005 -0.4910
vn -0.9991 -0.0425 -0.0033
vn 0.8405 -0.0053 -0.5418
vn 0.8553 -0.0028 -0.5182
vn -0.9821 -0.1854 -0.0321
vn 0.9942 -0.0822 0.0688
vn 0.0492 -0.0041 0.9988
vn 0.9807 -0.1596 0.1132
vn -0.9729 -0.1871 -0.1359
vn 1.0000 0.0061 0.0008
vn -0.8707 0.0000 0.4918
vn -0.7853 -0.0022 0.6191
vn 0.9997 -0.0258 0.0034
vn -0.8954 -0.4452 0.0000
vn -0.9916 -0.1290 0.0049
vn 0.8347 0.0000 -0.5507
vn -0.4150 0.2018 -0.8872
vn -0.9848 0.1737 0.0079
vn -0.9930 0.1167 -0.0210
vn -0.9901 0.1365 0.0328
vn -0.9863 0.1647 -0.0100
vn 0.4501 0.8751 -0.1779
vn 0.9999 -0.0145 -0.0050
vn 0.4863 0.8227 0.2943
vn 0.2390 0.8961 -0.3740
vn 0.2526 0.9469 -0.1988
vn 0.4496 0.8741 -0.1840
vn 0.4468 0.8686 0.2144
vn -0.0034 0.0057 1.0000
vn 0.0019 0.0032 -1.0000
vn 0.0042 0.0071 -1.0000
vn -1.0000 0.0000 0.0000
vn -0.8567 -0.0054 0.5158
vn -0.6835 0.7287 0.0420
vn 0.6836 0.7287 -0.0420
vn 0.9208 0.3900 -0.0000
vn 0.4150 0.2018 0.8872
vn 0.4501 0.8751 0.1779
vn -0.9816 -0.1334 0.1368
vn 0.9994 -0.0231 -0.0250
vn 0.4468 0.8686 -0.2144
vn -0.9806 -0.0259 -0.1945
vn -0.9997 -0.0243 0.0024
vn 0.9835 -0.1277 -0.1283
vn 0.9994 -0.0359 0.0033
vn 0.9985 -0.0504 0.0219
vn 0.9993 -0.0361 -0.0036
vn -0.9985 -0.0509 -0.0221
vn -0.9888 0.1493 0.0000
vn -0.6336 0.7033 0.3223
vn 0.9842 0.1769 0.0071
vn -0.6595 0.7302 0.1788
vn 0.2526 0.9469 0.1988
vn -0.9981 -0.0566 -0.0239
vn 0.9997 -0.0243 -0.0091
vn -0.0015 -0.0171 0.9999
vn 0.8953 -0.4454 0.0012
vn 0.9996 0.0000 -0.0294
vn 0.9991 -0.0427 -0.0035
vn -0.9930 -0.0617 -0.1010
vn -0.7460 0.1831 -0.6403
vn -0.2526 0.9469 0.1988
vn -0.4468 0.8686 -0.2144
vn -0.4400 0.8955 -0.0676
vn -0.4501 0.8751 0.1779
vn 0.0787 0.9245 -0.3730
vn -0.4863 0.8227 -0.2943
vn -1.0000 0.0001 -0.0001
vn 0.8567 -0.0054 0.5158
vn 0.7192 0.1863 0.6694
s off
f 29/1/1 71/2/1 72/3/1
f 33/4/2 94/5/2 130/6/2
f 40/7/3 23/8/3 54/9/3
f 40/7/4 41/10/4 53/11/4
f 50/12/5 32/13/5 52/14/5
f 50/12/6 42/15/6 51/16/6
f 24/17/7 8/18/7 47/19/7
f 129/20/8 57/21/8 63/22/8
f 73/23/9 25/24/9 33/4/9
f 50/12/5 52/14/5 42/15/5
f 40/7/10 53/11/10 71/2/10
f 40/7/11 54/9/11 41/10/11
f 11/25/12 76/26/12 17/27/12
f 15/28/13 50/29/13 40/30/13
f 29/31/14 122/32/14 10/33/14
f 134/34/15 9/35/15 132/36/15
f 47/19/16 116/37/16 34/38/16
f 19/39/17 87/40/17 13/41/17
f 105/42/18 60/43/18 56/44/18
f 26/45/19 2/46/19 5/47/19
f 34/48/20 129/20/20 63/22/20
f 130/6/21 105/42/21 56/44/21
f 29/31/22 90/49/22 91/50/22
f 19/39/17 115/51/17 87/40/17
f 16/52/23 136/53/23 133/54/23
f 125/55/24 135/56/24 122/32/24
f 11/25/25 17/27/25 44/57/25
f 73/23/26 77/58/26 25/24/26
f 24/17/27 74/59/27 8/18/27
f 118/60/28 89/61/28 134/34/28
f 128/62/29 86/63/29 126/64/29
f 26/45/30 137/65/30 132/36/30
f 117/66/29 134/34/29 86/63/29
f 110/67/19 89/61/19 118/60/19
f 85/68/24 135/56/24 125/55/24
f 135/56/31 12/69/31 133/54/31
f 104/70/24 125/55/24 122/32/24
f 121/71/24 93/72/24 135/56/24
f 109/73/24 121/71/24 135/56/24
f 135/56/32 136/53/32 122/32/32
f 69/74/33 70/75/33 68/76/33
f 66/77/34 1/78/34 19/79/34
f 17/27/35 4/80/35 31/81/35
f 84/82/36 1/78/36 18/83/36
f 83/84/37 6/85/37 78/86/37
f 33/4/38 22/87/38 73/23/38
f 63/22/39 6/85/39 34/48/39
f 15/88/1 59/89/1 28/90/1
f 27/91/40 14/92/40 61/93/40
f 56/44/41 60/43/41 43/94/41
f 123/95/42 56/44/42 43/94/42
f 30/96/43 75/97/43 56/44/43
f 119/98/44 25/24/44 48/99/44
f 50/12/34 55/100/34 32/13/34
f 79/101/45 69/74/45 8/18/45
f 81/102/37 14/92/37 80/103/37
f 48/99/46 44/57/46 64/104/46
f 62/105/47 31/81/47 49/106/47
f 47/19/48 6/85/48 24/17/48
f 25/24/49 11/25/49 44/57/49
f 19/79/50 36/107/50 38/108/50
f 94/5/51 46/109/51 45/110/51
f 39/111/50 63/22/50 57/21/50
f 116/37/52 65/112/52 58/113/52
f 7/114/53 78/86/53 81/102/53
f 81/102/54 80/103/54 7/114/54
f 11/25/55 51/16/55 42/15/55
f 15/28/13 7/115/13 50/29/13
f 51/16/56 40/7/56 50/12/56
f 4/80/57 52/14/57 32/13/57
f 30/96/58 41/10/58 75/97/58
f 22/87/58 23/8/58 73/23/58
f 31/81/34 32/13/34 55/100/34
f 82/116/59 79/101/59 15/88/59
f 28/90/60 82/116/60 15/88/60
f 3/117/61 16/52/61 133/54/61
f 29/31/62 91/50/62 122/32/62
f 29/1/63 30/96/63 56/44/63
f 68/118/64 9/35/64 89/61/64
f 89/61/65 9/35/65 134/34/65
f 44/57/66 17/27/66 131/119/66
f 37/120/67 68/76/67 35/121/67
f 68/76/68 28/90/68 59/89/68
f 114/122/69 47/19/69 8/18/69
f 119/98/70 33/4/70 25/24/70
f 26/45/71 132/36/71 2/46/71
f 31/123/72 93/72/72 92/124/72
f 131/119/73 17/27/73 62/105/73
f 19/79/74 27/91/74 61/93/74
f 90/125/75 56/44/75 123/95/75
f 63/22/48 14/92/48 20/126/48
f 126/64/29 86/63/29 134/34/29
f 130/6/76 75/97/76 22/87/76
f 68/118/77 89/61/77 88/127/77
f 10/33/78 136/53/78 16/52/78
f 31/123/72 12/69/72 93/72/72
f 66/77/34 7/114/34 18/83/34
f 83/84/79 78/86/79 15/88/79
f 79/101/80 83/84/80 15/88/80
f 84/82/81 18/83/81 7/114/81
f 80/103/82 84/82/82 7/114/82
f 67/128/1 40/7/1 71/2/1
f 81/102/83 6/85/83 20/126/83
f 8/18/84 69/74/84 68/76/84
f 73/23/85 51/16/85 77/58/85
f 11/25/85 52/14/85 76/26/85
f 30/96/86 71/2/86 53/11/86
f 22/87/87 41/10/87 54/9/87
f 28/90/88 69/74/88 82/116/88
f 79/101/89 24/17/89 83/84/89
f 84/82/83 14/92/83 27/91/83
f 128/62/19 96/129/19 86/63/19
f 8/18/90 74/59/90 79/101/90
f 25/24/91 77/58/91 51/16/91
f 17/27/92 76/26/92 52/14/92
f 99/130/19 127/131/19 98/132/19
f 117/66/19 112/133/19 113/134/19
f 127/131/19 100/135/19 126/64/19
f 117/66/29 113/134/29 134/34/29
f 124/136/24 104/70/24 122/32/24
f 120/137/24 109/73/24 135/56/24
f 85/68/93 107/138/93 120/137/93
f 121/71/93 108/139/93 106/140/93
f 124/136/93 91/50/93 102/141/93
f 85/68/24 120/137/24 135/56/24
f 93/72/94 12/69/94 135/56/94
f 104/70/93 101/142/93 125/55/93
f 87/40/29 127/131/29 126/64/29
f 100/135/29 128/62/29 126/64/29
f 113/134/29 118/60/29 134/34/29
f 135/56/95 133/54/95 136/53/95
f 134/34/96 132/36/96 137/65/96
f 126/64/97 134/34/97 137/65/97
f 137/65/98 26/45/98 13/41/98
f 29/1/1 67/128/1 71/2/1
f 66/77/34 18/83/34 1/78/34
f 84/82/83 27/91/83 1/78/83
f 83/84/99 24/17/99 6/85/99
f 33/4/100 130/6/100 22/87/100
f 63/22/101 20/126/101 6/85/101
f 79/101/102 82/116/102 69/74/102
f 81/102/99 20/126/99 14/92/99
f 48/99/103 25/24/103 44/57/103
f 62/105/104 17/27/104 31/81/104
f 47/19/105 34/48/105 6/85/105
f 19/79/106 61/93/106 36/107/106
f 94/5/107 130/143/107 46/109/107
f 39/111/108 61/93/108 63/22/108
f 116/37/109 34/38/109 65/112/109
f 7/114/110 15/88/110 78/86/110
f 11/25/111 25/24/111 51/16/111
f 51/16/112 23/8/112 40/7/112
f 4/80/113 17/27/113 52/14/113
f 30/96/114 53/11/114 41/10/114
f 22/87/114 54/9/114 23/8/114
f 31/81/34 4/80/34 32/13/34
f 3/117/93 21/144/93 16/52/93
f 29/1/115 72/3/115 30/96/115
f 37/120/116 8/18/116 68/76/116
f 68/76/117 70/75/117 28/90/117
f 114/122/118 116/37/118 47/19/118
f 119/98/75 94/5/75 33/4/75
f 19/79/119 1/78/119 27/91/119
f 90/125/75 29/1/75 56/44/75
f 63/22/120 61/93/120 14/92/120
f 130/6/121 56/44/121 75/97/121
f 10/33/122 122/32/122 136/53/122
f 81/102/123 78/86/123 6/85/123
f 73/23/124 23/8/124 51/16/124
f 11/25/124 42/15/124 52/14/124
f 30/96/125 72/3/125 71/2/125
f 22/87/126 75/97/126 41/10/126
f 28/90/127 70/75/127 69/74/127
f 79/101/128 74/59/128 24/17/128
f 84/82/123 80/103/123 14/92/123
f 128/62/19 97/145/19 96/129/19
f 99/130/19 100/135/19 127/131/19
f 117/66/19 111/146/19 112/133/19
f 85/68/93 95/147/93 107/138/93
f 121/71/93 109/73/93 108/139/93
f 124/136/129 122/32/129 91/50/129
f 104/70/93 103/148/93 101/142/93
f 87/40/130 126/64/130 13/41/130
f 126/64/131 137/65/131 13/41/131
